<svg width="330" height="287" viewBox="0 0 330 287" fill="none" xmlns="http://www.w3.org/2000/svg">
<rect width="330" height="287" fill="white"/>
<circle cx="159" cy="147" r="76" fill="white" stroke="#531AFF" stroke-width="8"/>
<path d="M212.152 77.2727V150H198.871L167.23 104.226H166.697V150H151.321V77.2727H164.815L196.207 123.011H196.847V77.2727H212.152Z" fill="black"/>
<path d="M112.893 166.214C112.819 165.406 112.493 164.779 111.913 164.331C111.341 163.876 110.522 163.649 109.458 163.649C108.754 163.649 108.166 163.741 107.697 163.924C107.227 164.107 106.875 164.361 106.64 164.684C106.405 164.999 106.284 165.362 106.277 165.773C106.262 166.111 106.328 166.408 106.475 166.665C106.629 166.922 106.849 167.15 107.135 167.348C107.429 167.538 107.781 167.707 108.192 167.854C108.603 168.001 109.065 168.129 109.579 168.239L111.517 168.68C112.632 168.922 113.616 169.245 114.467 169.648C115.326 170.052 116.045 170.533 116.625 171.091C117.212 171.648 117.656 172.29 117.957 173.017C118.258 173.744 118.412 174.558 118.419 175.461C118.412 176.885 118.052 178.107 117.34 179.127C116.628 180.147 115.605 180.929 114.269 181.472C112.94 182.015 111.337 182.286 109.458 182.286C107.572 182.286 105.928 182.004 104.526 181.439C103.125 180.873 102.035 180.015 101.257 178.863C100.479 177.71 100.079 176.254 100.057 174.492H105.275C105.319 175.219 105.513 175.824 105.858 176.309C106.203 176.793 106.677 177.16 107.278 177.409C107.888 177.659 108.592 177.784 109.392 177.784C110.126 177.784 110.75 177.685 111.263 177.487C111.785 177.288 112.185 177.013 112.463 176.661C112.742 176.309 112.885 175.905 112.893 175.45C112.885 175.024 112.753 174.661 112.496 174.36C112.24 174.052 111.843 173.788 111.308 173.567C110.779 173.34 110.104 173.131 109.282 172.94L106.926 172.39C104.974 171.942 103.436 171.219 102.314 170.221C101.191 169.215 100.633 167.858 100.64 166.148C100.633 164.753 101.007 163.531 101.763 162.482C102.519 161.432 103.565 160.614 104.901 160.027C106.236 159.44 107.759 159.146 109.469 159.146C111.216 159.146 112.731 159.444 114.016 160.038C115.307 160.625 116.309 161.451 117.021 162.515C117.733 163.579 118.096 164.812 118.111 166.214H112.893ZM142.451 170.727C142.451 173.208 141.974 175.31 141.02 177.035C140.065 178.76 138.774 180.07 137.145 180.965C135.523 181.861 133.703 182.308 131.684 182.308C129.659 182.308 127.835 181.857 126.213 180.954C124.591 180.051 123.303 178.741 122.349 177.024C121.402 175.299 120.929 173.201 120.929 170.727C120.929 168.247 121.402 166.144 122.349 164.419C123.303 162.695 124.591 161.385 126.213 160.489C127.835 159.594 129.659 159.146 131.684 159.146C133.703 159.146 135.523 159.594 137.145 160.489C138.774 161.385 140.065 162.695 141.02 164.419C141.974 166.144 142.451 168.247 142.451 170.727ZM136.88 170.727C136.88 169.259 136.671 168.019 136.253 167.006C135.842 165.994 135.247 165.227 134.469 164.706C133.699 164.185 132.77 163.924 131.684 163.924C130.605 163.924 129.677 164.185 128.899 164.706C128.121 165.227 127.523 165.994 127.105 167.006C126.694 168.019 126.488 169.259 126.488 170.727C126.488 172.195 126.694 173.435 127.105 174.448C127.523 175.461 128.121 176.228 128.899 176.749C129.677 177.27 130.605 177.531 131.684 177.531C132.77 177.531 133.699 177.27 134.469 176.749C135.247 176.228 135.842 175.461 136.253 174.448C136.671 173.435 136.88 172.195 136.88 170.727ZM145.632 182V159.455H151.081V177.575H160.461V182H145.632ZM176.921 159.455H182.359V173.997C182.359 175.677 181.959 177.142 181.159 178.389C180.359 179.629 179.244 180.591 177.813 181.273C176.382 181.949 174.719 182.286 172.826 182.286C170.91 182.286 169.237 181.949 167.806 181.273C166.375 180.591 165.263 179.629 164.47 178.389C163.678 177.142 163.282 175.677 163.282 173.997V159.455H168.731V173.523C168.731 174.301 168.9 174.995 169.237 175.604C169.582 176.213 170.063 176.69 170.679 177.035C171.296 177.38 172.011 177.553 172.826 177.553C173.641 177.553 174.352 177.38 174.962 177.035C175.578 176.69 176.059 176.213 176.404 175.604C176.749 174.995 176.921 174.301 176.921 173.523V159.455ZM185.037 163.88V159.455H204.093V163.88H197.257V182H191.884V163.88H185.037ZM212.203 159.455V182H206.754V159.455H212.203ZM268.113 159.455V182H263.489L254.517 168.988H254.374V182H248.925V159.455H253.615L262.488 172.445H262.675V159.455H268.113ZM283.726 166.214C283.652 165.406 283.326 164.779 282.746 164.331C282.174 163.876 281.355 163.649 280.291 163.649C279.587 163.649 278.999 163.741 278.53 163.924C278.06 164.107 277.708 164.361 277.473 164.684C277.238 164.999 277.117 165.362 277.11 165.773C277.095 166.111 277.161 166.408 277.308 166.665C277.462 166.922 277.682 167.15 277.968 167.348C278.262 167.538 278.614 167.707 279.025 167.854C279.436 168.001 279.898 168.129 280.412 168.239L282.35 168.68C283.465 168.922 284.449 169.245 285.3 169.648C286.159 170.052 286.878 170.533 287.458 171.091C288.045 171.648 288.489 172.29 288.79 173.017C289.091 173.744 289.245 174.558 289.252 175.461C289.245 176.885 288.885 178.107 288.173 179.127C287.461 180.147 286.438 180.929 285.102 181.472C283.773 182.015 282.17 182.286 280.291 182.286C278.405 182.286 276.761 182.004 275.359 181.439C273.958 180.873 272.868 180.015 272.09 178.863C271.312 177.71 270.912 176.254 270.89 174.492H276.108C276.152 175.219 276.346 175.824 276.691 176.309C277.036 176.793 277.51 177.16 278.111 177.409C278.721 177.659 279.425 177.784 280.225 177.784C280.959 177.784 281.583 177.685 282.097 177.487C282.618 177.288 283.018 177.013 283.296 176.661C283.575 176.309 283.718 175.905 283.726 175.45C283.718 175.024 283.586 174.661 283.329 174.36C283.073 174.052 282.676 173.788 282.141 173.567C281.612 173.34 280.937 173.131 280.115 172.94L277.759 172.39C275.807 171.942 274.269 171.219 273.147 170.221C272.024 169.215 271.466 167.858 271.473 166.148C271.466 164.753 271.84 163.531 272.596 162.482C273.352 161.432 274.398 160.614 275.734 160.027C277.069 159.44 278.592 159.146 280.302 159.146C282.049 159.146 283.564 159.444 284.849 160.038C286.14 160.625 287.142 161.451 287.854 162.515C288.566 163.579 288.929 164.812 288.944 166.214H283.726Z" fill="black"/>
<circle cx="100.5" cy="99.5" r="10.5" stroke="#531AFF" stroke-width="6"/>
<circle cx="144.5" cy="220.5" r="10.5" stroke="#531AFF" stroke-width="6"/>
<circle cx="230.5" cy="170.5" r="10.75" stroke="black" stroke-width="5.5"/>
</svg>
